<svg xmlns="http://www.w3.org/2000/svg" viewBox="0 0 980 240">
    <rect width="240" height="240" rx="36" ry="36" style="fill:#27b7d7" shape-rendering="optimizeQuality"/>
    <path d="M1040,200a60,60,0,1,0,60,60A60,60,0,0,0,1040,200Zm0,96a36,36,0,1,1,36-36A36,36,0,0,1,1040,296Z"
          transform="translate(-120 -120)" style="fill:#2e4257" shape-rendering="optimizeQuality"/>
    <path d="M648,200a56.65,56.65,0,0,0-38,14.69V162H586V318h24V305.31A56.65,56.65,0,0,0,648,320c32,0,58-26.86,58-60S680,200,648,200Zm-2,96a36,36,0,1,1,36-36A36,36,0,0,1,646,296Z"
          transform="translate(-120 -120)" style="fill:#2e4257"/>
    <rect x="818" y="42" width="24" height="156" style="fill:#2e4257" shape-rendering="optimizeQuality"/>
    <path d="M882,202H858V318h24V260a36,36,0,0,1,36-36h2V200a56.65,56.65,0,0,0-38,14.69Z"
          transform="translate(-120 -120)" style="fill:#2e4257" shape-rendering="optimizeQuality"/>
    <path d="M780,200a60,60,0,1,0,54.09,86h-29.2a36,36,0,0,1-59.47-16h93.74A60,60,0,0,0,780,200Zm-34.58,50a36,36,0,0,1,69.16,0Z"
          transform="translate(-120 -120)" style="fill:#2e4257" shape-rendering="optimizeQuality"/>
    <path d="M488,160a80,80,0,1,0,80,80A80,80,0,0,0,488,160Zm0,134a54,54,0,1,1,54-54A54,54,0,0,1,488,294Z"
          transform="translate(-120 -120)" style="fill:#2e4257" shape-rendering="optimizeQuality"/>
    <path d="M290,188H218.91a36,36,0,0,0-25.46,10.54l-28.73,28.73a18,18,0,0,0,0,25.46l28.73,28.73A36,36,0,0,0,218.91,292H290a18,18,0,0,0,18-18V206A18,18,0,0,0,290,188Zm-72,70a18,18,0,1,1,18-18A18,18,0,0,1,218,258Z"
          transform="translate(-120 -120)" style="fill:#fff" shape-rendering="optimizeQuality"/>
</svg>