<svg xmlns="http://www.w3.org/2000/svg" width="32" height="32" viewBox="0 0 32 32">
  <path fill="#818D9A" d="M7.17157288,16.1807469 C3.2252613,15.6886488 0.171572875,12.3222583 0.171572875,8.24264069 C0.171572875,3.82436269 3.75329488,0.242640687 8.17157288,0.242640687 C12.5898509,0.242640687 16.1715729,3.82436269 16.1715729,8.24264069 C16.1715729,12.3222583 13.1178845,15.6886488 9.17157288,16.1807469 L9.17157288,21.9602599 C9.17157288,22.5125447 8.72385763,22.9602599 8.17157288,22.9602599 C7.61928813,22.9602599 7.17157288,22.5125447 7.17157288,21.9602599 L7.17157288,16.1807469 Z M8.17157288,14.2426407 C11.4852814,14.2426407 14.1715729,11.5563492 14.1715729,8.24264069 C14.1715729,4.92893219 11.4852814,2.24264069 8.17157288,2.24264069 C4.85786438,2.24264069 2.17157288,4.92893219 2.17157288,8.24264069 C2.17157288,11.5563492 4.85786438,14.2426407 8.17157288,14.2426407 Z" transform="rotate(-45 19.632 3.89)"/>
</svg>
