<svg style="position: absolute; width: 0; height: 0; overflow: hidden;" version="1.1" xmlns="http://www.w3.org/2000/svg" xmlns:xlink="http://www.w3.org/1999/xlink">
<defs>
<symbol id="icon-facebook" viewBox="0 0 32 32">
<title>facebook</title>
<path d="M21.586 7.004l-2.638-0.004c-2.964 0-4.88 1.835-4.88 4.676v2.156h-2.653c-0.229 0-0.415 0.174-0.415 0.388v3.124c0 0.214 0.186 0.387 0.415 0.387h2.653v7.882c0 0.214 0.186 0.387 0.415 0.387h3.461c0.229 0 0.415-0.174 0.415-0.387v-7.882h3.102c0.229 0 0.415-0.173 0.415-0.387l0.001-3.124c0-0.103-0.044-0.201-0.122-0.274s-0.183-0.114-0.294-0.114h-3.103v-1.828c0-0.878 0.224-1.324 1.449-1.324l1.777-0.001c0.229 0 0.415-0.174 0.415-0.387v-2.901c0-0.214-0.185-0.387-0.414-0.387z"></path>
</symbol>
<symbol id="icon-instagram" viewBox="0 0 32 32">
<title>instagram</title>
<path d="M20.308 8h-7.617c-2.587 0-4.691 2.105-4.691 4.691v7.617c0 2.587 2.104 4.691 4.691 4.691h7.617c2.587 0 4.692-2.105 4.692-4.691v-7.617c0-2.587-2.105-4.691-4.691-4.691zM23.492 20.309c0 1.755-1.428 3.183-3.183 3.183h-7.617c-1.755 0-3.183-1.428-3.183-3.183v-7.617c0-1.755 1.428-3.183 3.183-3.183h7.617c1.755 0 3.183 1.428 3.183 3.183v7.617h0z"></path>
<path d="M16.5 12c-2.481 0-4.5 2.019-4.5 4.5s2.019 4.5 4.5 4.5 4.5-2.019 4.5-4.5c0-2.481-2.019-4.5-4.5-4.5zM16.5 19.45c-1.627 0-2.951-1.323-2.951-2.95s1.324-2.951 2.951-2.951 2.951 1.324 2.951 2.951c0 1.627-1.324 2.95-2.951 2.95zM21.5 11c-0.394 0-0.781 0.16-1.060 0.439-0.28 0.278-0.44 0.665-0.44 1.061 0 0.394 0.161 0.781 0.44 1.061 0.278 0.278 0.665 0.439 1.060 0.439 0.395 0 0.781-0.161 1.061-0.439 0.28-0.28 0.439-0.667 0.439-1.061 0-0.395-0.16-0.783-0.439-1.061-0.278-0.28-0.665-0.439-1.061-0.439z"></path>
</symbol>
<symbol id="icon-linkedin" viewBox="0 0 32 32">
<title>linkedin</title>
<path d="M11.723 12.967h-3.446c-0.153 0-0.277 0.107-0.277 0.238v9.524c0 0.132 0.124 0.238 0.277 0.238h3.446c0.153 0 0.277-0.107 0.277-0.238v-9.524c0-0.132-0.124-0.238-0.277-0.238zM9.979 8c-1.091 0-1.979 0.887-1.979 1.977s0.888 1.978 1.979 1.978c1.090 0 1.977-0.887 1.977-1.978s-0.887-1.977-1.977-1.977zM19.101 12.972c-1.225 0-2.131 0.504-2.68 1.077v-0.609c0-0.13-0.11-0.235-0.245-0.235h-2.922c-0.135 0-0.245 0.105-0.245 0.235v9.376c0 0.13 0.11 0.235 0.245 0.235h3.044c0.135 0 0.245-0.105 0.245-0.235v-4.639c0-1.563 0.444-2.172 1.583-2.172 1.241 0 1.339 0.976 1.339 2.253v4.559c0 0.13 0.11 0.235 0.245 0.235h3.045c0.135 0 0.245-0.105 0.245-0.235v-5.143c0-2.325-0.463-4.701-3.899-4.701z"></path>
</symbol>
<symbol id="icon-pinterest" viewBox="0 0 32 32">
<title>pinterest</title>
<path d="M21.314 9.64c-1.139-1.057-2.714-1.64-4.437-1.64-2.631 0-4.249 1.043-5.143 1.918-1.102 1.079-1.734 2.511-1.734 3.929 0 1.781 0.77 3.148 2.060 3.657 0.087 0.034 0.174 0.052 0.259 0.052 0.272 0 0.488-0.172 0.562-0.448 0.044-0.159 0.144-0.549 0.188-0.719 0.094-0.335 0.018-0.496-0.187-0.73-0.373-0.427-0.547-0.932-0.547-1.589 0-1.952 1.502-4.026 4.287-4.026 2.209 0 3.582 1.215 3.582 3.17 0 1.234-0.275 2.376-0.774 3.218-0.347 0.584-0.956 1.281-1.893 1.281-0.405 0-0.768-0.161-0.998-0.441-0.217-0.265-0.288-0.608-0.201-0.964 0.098-0.403 0.233-0.824 0.363-1.231 0.237-0.743 0.461-1.444 0.461-2.004 0-0.957-0.608-1.6-1.514-1.6-1.151 0-2.052 1.13-2.052 2.574 0 0.708 0.194 1.237 0.282 1.44-0.145 0.594-1.006 4.126-1.17 4.792-0.095 0.389-0.664 3.46 0.278 3.704 1.058 0.275 2.005-2.716 2.101-3.054 0.078-0.275 0.351-1.314 0.518-1.953 0.511 0.476 1.334 0.798 2.134 0.798 1.509 0 2.866-0.657 3.822-1.85 0.926-1.157 1.437-2.769 1.437-4.54 0-1.384-0.615-2.749-1.686-3.744z"></path>
</symbol>
<symbol id="icon-shopify-logo" viewBox="0 0 112 32">
  <path fill="#95bf47" style="fill: var(--color4, #95bf47)" d="M24.039 6.106c0-0.155-0.155-0.232-0.232-0.232s-2.473-0.155-2.473-0.155-1.623-1.623-1.855-1.855c-0.155-0.155-0.541-0.155-0.696-0.077 0 0-0.386 0.077-0.928 0.309-0.541-1.623-1.546-3.092-3.246-3.092-0.077 0-0.077 0-0.155 0-0.541-0.696-1.159-1.005-1.7-1.005-4.019 0-5.952 5.024-6.57 7.575-1.546 0.464-2.705 0.85-2.86 0.85-0.85 0.232-0.928 0.309-1.005 1.082 0 0.696-2.319 18.396-2.319 18.396l17.855 3.324 9.662-2.087c0 0-3.401-22.879-3.478-23.034zM16.85 4.329c-0.464 0.077-1.005 0.232-1.546 0.464 0-0.077 0-0.232 0-0.309 0-1.005-0.155-1.778-0.386-2.473 0.928 0.155 1.546 1.159 1.932 2.319zM13.836 2.242c0.232 0.618 0.386 1.469 0.386 2.705 0 0.077 0 0.077 0 0.155-0.928 0.309-2.010 0.618-3.092 1.005 0.618-2.319 1.778-3.478 2.705-3.865zM12.676 1.082c0.155 0 0.386 0.077 0.541 0.155-1.314 0.618-2.705 2.164-3.246 5.179-0.85 0.232-1.7 0.541-2.473 0.773 0.618-2.319 2.242-6.106 5.179-6.106z"></path>
  <path fill="#5e8e3e" style="fill: var(--color5, #5e8e3e)" d="M23.807 5.797c-0.077 0-2.473-0.155-2.473-0.155s-1.623-1.623-1.855-1.855c-0.077-0.077-0.155-0.077-0.232-0.077l-1.391 27.594 9.662-2.087c0 0-3.401-22.957-3.401-23.111-0.077-0.155-0.232-0.232-0.309-0.309z"></path>
  <path fill="#fff" style="fill: var(--color3, #fff)" d="M14.531 11.13l-1.159 3.556c0 0-1.082-0.541-2.319-0.541-1.855 0-2.010 1.159-2.010 1.469 0 1.623 4.251 2.242 4.251 6.029 0 3.014-1.855 4.947-4.406 4.947-3.092 0-4.638-1.932-4.638-1.932l0.85-2.705c0 0 1.623 1.391 2.937 1.391 0.928 0 1.237-0.696 1.237-1.237 0-2.087-3.478-2.164-3.478-5.643 0-2.937 2.087-5.72 6.338-5.72 1.623-0.077 2.396 0.386 2.396 0.386zM38.725 17.855c-0.928-0.541-1.469-0.928-1.469-1.546 0-0.773 0.696-1.237 1.778-1.237 1.237 0 2.396 0.541 2.396 0.541l0.85-2.705c0 0-0.773-0.618-3.169-0.618-3.324 0-5.642 1.932-5.642 4.56 0 1.546 1.082 2.705 2.473 3.478 1.159 0.618 1.546 1.159 1.546 1.778 0 0.696-0.618 1.314-1.623 1.314-1.623 0-3.092-0.85-3.092-0.85l-0.928 2.705c0 0 1.391 0.928 3.71 0.928 3.401 0 5.874-1.7 5.874-4.715 0.077-1.7-1.159-2.783-2.705-3.633zM52.328 12.135c-1.7 0-3.014 0.773-4.019 2.010h-0.077l1.469-7.652h-3.787l-3.71 19.401h3.787l1.237-6.647c0.464-2.473 1.778-4.019 3.014-4.019 0.85 0 1.159 0.618 1.159 1.391 0 0.541-0.077 1.159-0.155 1.7l-1.469 7.575h3.787l1.469-7.884c0.155-0.85 0.232-1.778 0.232-2.473 0.155-2.087-0.928-3.401-2.937-3.401zM64.077 12.135c-4.638 0-7.652 4.174-7.652 8.734 0 2.937 1.778 5.333 5.256 5.333 4.483 0 7.498-4.019 7.498-8.734 0-2.705-1.546-5.333-5.101-5.333zM62.145 23.266c-1.314 0-1.855-1.082-1.855-2.473 0-2.164 1.082-5.72 3.169-5.72 1.314 0 1.778 1.159 1.778 2.319 0.077 2.319-1.082 5.874-3.092 5.874zM78.918 12.135c-2.551 0-4.019 2.242-4.019 2.242h-0.077l0.232-2.010h-3.324c-0.155 1.391-0.464 3.478-0.773 5.024l-2.628 13.913h3.787l1.082-5.642h0.077c0 0 0.773 0.464 2.242 0.464 4.483 0 7.343-4.56 7.343-9.198 0-2.473-1.159-4.792-3.942-4.792zM75.285 23.343c-1.005 0-1.546-0.541-1.546-0.541l0.618-3.556c0.464-2.396 1.7-3.942 3.014-3.942 1.159 0 1.546 1.082 1.546 2.087-0.077 2.396-1.546 5.952-3.633 5.952zM88.271 6.725c-1.237 0-2.164 0.928-2.164 2.164 0 1.159 0.696 1.932 1.778 1.932h0.077c1.159 0 2.164-0.773 2.242-2.164-0.077-1.159-0.773-1.932-1.932-1.932z"></path>
  <path fill="#fff" style="fill: var(--color3, #fff)" d="M82.937 25.894h3.787l2.551-13.449h-3.787z"></path>
  <path fill="#fff" style="fill: var(--color3, #fff)" d="M98.937 12.444h-2.628l0.155-0.618c0.232-1.314 1.005-2.473 2.242-2.473 0.696 0 1.237 0.232 1.237 0.232l0.773-3.014c0 0-0.618-0.309-2.087-0.309-1.314 0-2.705 0.386-3.71 1.237-1.314 1.082-1.932 2.705-2.164 4.329l-0.077 0.618h-1.778l-0.541 2.86h1.778l-2.010 10.589h3.787l2.010-10.589h2.628l0.386-2.86zM108.135 12.444c0 0-2.396 5.952-3.401 9.275h-0.077c-0.077-1.082-0.928-9.275-0.928-9.275h-4.019l2.319 12.367c0.077 0.232 0 0.464-0.077 0.618-0.464 0.85-1.159 1.7-2.087 2.319-0.696 0.541-1.546 0.85-2.164 1.082l1.082 3.246c0.773-0.155 2.396-0.773 3.71-2.087 1.7-1.623 3.324-4.097 4.947-7.498l4.638-9.971h-3.942z"></path>
</symbol>
<symbol id="icon-twitter" viewBox="0 0 32 32">
<path d="M24.078 10.545c-0.592 0.262-1.227 0.44-1.894 0.519 0.681-0.408 1.203-1.055 1.45-1.824-0.639 0.378-1.344 0.652-2.096 0.801-0.602-0.642-1.458-1.042-2.407-1.042-1.822 0-3.298 1.477-3.298 3.297 0 0.258 0.029 0.51 0.085 0.752-2.741-0.138-5.171-1.451-6.798-3.446-0.284 0.486-0.446 1.053-0.446 1.658 0 1.144 0.583 2.154 1.467 2.745-0.541-0.018-1.049-0.167-1.494-0.414v0.041c0 1.597 1.137 2.931 2.645 3.234-0.276 0.074-0.568 0.116-0.869 0.116-0.213 0-0.419-0.021-0.621-0.061 0.42 1.311 1.638 2.265 3.080 2.291-1.128 0.884-2.551 1.41-4.096 1.41-0.266 0-0.528-0.016-0.787-0.045 1.46 0.937 3.193 1.484 5.056 1.484 6.067 0 9.384-5.025 9.384-9.384l-0.011-0.427c0.648-0.462 1.209-1.043 1.65-1.704z"></path>
  <path d="M25 11.013c-0.626 0.277-1.297 0.465-2.002 0.549 0.72-0.431 1.272-1.115 1.533-1.928-0.676 0.399-1.421 0.689-2.216 0.847-0.636-0.679-1.541-1.102-2.545-1.102-1.926 0-3.488 1.562-3.488 3.486 0 0.273 0.031 0.54 0.090 0.795-2.898-0.146-5.468-1.534-7.188-3.644-0.301 0.514-0.472 1.113-0.472 1.753 0 1.21 0.616 2.278 1.551 2.902-0.572-0.019-1.109-0.176-1.58-0.438v0.044c0 1.689 1.203 3.099 2.797 3.42-0.292 0.079-0.6 0.122-0.919 0.122-0.225 0-0.443-0.022-0.656-0.065 0.444 1.386 1.732 2.394 3.257 2.422-1.193 0.935-2.697 1.49-4.331 1.49-0.281 0-0.559-0.017-0.832-0.048 1.544 0.991 3.376 1.569 5.345 1.569 6.415 0 9.922-5.314 9.922-9.922l-0.012-0.451c0.685-0.489 1.278-1.103 1.744-1.802z"></path>
</symbol>
<symbol id="icon-youtube" viewBox="0 0 32 32">
<title>youtube</title>
<path d="M21.262 10h-10.523c-2.065 0-3.738 1.708-3.738 3.815v5.369c0 2.107 1.674 3.815 3.738 3.815h10.523c2.065 0 3.738-1.708 3.738-3.815v-5.369c0-2.107-1.674-3.815-3.738-3.815zM18.894 16.74l-4.628 2.241c-0.123 0.060-0.266-0.032-0.266-0.17v-4.622c0-0.141 0.146-0.232 0.27-0.168l4.628 2.381c0.138 0.071 0.135 0.271-0.004 0.339z"></path>
</symbol>
<symbol id="icon-arrow" viewBox="0 0 32 32">
  <title>arrow</title>
  <path fill="#1a81c5" opacity="0.9" style="fill: var(--color1, #1a81c5)" d="M19.571 15.891l-6.034 6.034c-0.312 0.312-0.312 0.819 0 1.131v0l0.189 0.189c0.312 0.312 0.819 0.312 1.131 0v0l6.788-6.788c0.156-0.156 0.234-0.361 0.234-0.566s-0.078-0.409-0.234-0.566l-6.788-6.788c-0.312-0.312-0.819-0.312-1.131 0l-0.189 0.189c-0.312 0.312-0.312 0.819 0 1.131l6.034 6.034z"></path>
</symbol>
<symbol id="icon-loop" viewBox="0 0 32 32">
  <path d="M19.512 21.392c-3.138 2.442-7.678 2.221-10.563-0.663-3.124-3.124-3.124-8.19 0-11.314s8.19-3.124 11.314 0c2.885 2.885 3.106 7.424 0.663 10.563l4.087 4.087c0.391 0.391 0.391 1.024 0 1.414s-1.024 0.391-1.414 0l-4.087-4.087zM18.849 19.314c2.343-2.343 2.343-6.142 0-8.485s-6.142-2.343-8.485 0c-2.343 2.343-2.343 6.142 0 8.485s6.142 2.343 8.485 0z"></path>
</symbol>
<symbol id="icon-search" viewBox="0 0 32 32">
  <path d="M7.17157288,16.1807469 C3.2252613,15.6886488 0.171572875,12.3222583 0.171572875,8.24264069 C0.171572875,3.82436269 3.75329488,0.242640687 8.17157288,0.242640687 C12.5898509,0.242640687 16.1715729,3.82436269 16.1715729,8.24264069 C16.1715729,12.3222583 13.1178845,15.6886488 9.17157288,16.1807469 L9.17157288,21.9602599 C9.17157288,22.5125447 8.72385763,22.9602599 8.17157288,22.9602599 C7.61928813,22.9602599 7.17157288,22.5125447 7.17157288,21.9602599 L7.17157288,16.1807469 Z M8.17157288,14.2426407 C11.4852814,14.2426407 14.1715729,11.5563492 14.1715729,8.24264069 C14.1715729,4.92893219 11.4852814,2.24264069 8.17157288,2.24264069 C4.85786438,2.24264069 2.17157288,4.92893219 2.17157288,8.24264069 C2.17157288,11.5563492 4.85786438,14.2426407 8.17157288,14.2426407 Z" transform="rotate(-45 19.632 3.89)"/>
</symbol>
<symbol id="icon-oberlo-logo" viewBox="0 0 131 32">
  <path fill="#27b7d7" style="fill: var(--color1, #27b7d7)" d="M27.2 32h-22.4c-2.635 0-4.8-2.165-4.8-4.8v-22.4c0-2.635 2.165-4.8 4.8-4.8h22.4c2.635 0 4.8 2.165 4.8 4.8v22.4c0 2.635-2.165 4.8-4.8 4.8z"></path>
  <path fill="#2e4257" style="fill: var(--color2, #2e4257)" d="M122.824 23.153c-2.635 0-4.8-2.165-4.8-4.8s2.165-4.8 4.8-4.8 4.8 2.165 4.8 4.8-2.165 4.8-4.8 4.8zM122.824 10.353c-4.424 0-8 3.576-8 8s3.576 8 8 8c4.424 0 8-3.576 8-8s-3.576-8-8-8zM70.118 23.247c-2.635 0-4.8-2.071-4.8-4.706s2.165-4.706 4.8-4.706c2.635 0 4.8 2.071 4.8 4.706s-2.165 4.706-4.8 4.706zM70.4 10.635c-1.976 0-3.671 0.753-5.082 1.882v-6.871h-3.2v20.424h3.2v-1.6c1.318 1.224 3.106 1.882 5.082 1.882 4.235 0 7.718-3.482 7.718-7.906s-3.482-7.812-7.718-7.812z"></path>
  <path fill="#2e4257" style="fill: var(--color2, #2e4257)" d="M109.176 26.353h2.824v-20.706h-2.824z"></path>
  <path fill="#2e4257" style="fill: var(--color2, #2e4257)" d="M102.118 10.635h-3.294v15.718h3.294v-7.906c0-2.729 2.165-4.894 4.894-4.894h0.282v-3.2c-1.976 0-3.765 0.753-5.176 1.976v-1.694zM83.388 17.035c0.565-1.976 2.447-3.482 4.612-3.482s4.047 1.506 4.612 3.482h-9.224zM88 10.353c-4.424 0-8 3.576-8 8s3.576 8 8 8c3.2 0 5.929-1.882 7.247-4.518h-3.953c-0.847 0.847-2.071 1.318-3.294 1.318-2.165 0-4.047-1.506-4.612-3.482h12.518c0.094-0.376 0.094-0.847 0.094-1.318 0-4.424-3.576-8-8-8v0zM49.412 23.812c-4.047 0-7.341-3.294-7.341-7.341s3.294-7.341 7.341-7.341 7.341 3.294 7.341 7.341-3.294 7.341-7.341 7.341zM49.412 5.647c-6.024 0-10.824 4.8-10.824 10.824s4.8 10.824 10.824 10.824 10.824-4.8 10.824-10.824-4.8-10.824-10.824-10.824z"></path>
  <path fill="#fff" style="fill: var(--color3, #fff)" d="M13.459 18.918c-1.318 0-2.353-1.129-2.353-2.447s1.035-2.447 2.353-2.447 2.353 1.129 2.353 2.447-1.035 2.447-2.353 2.447zM23.059 9.412h-9.412c-1.224 0-2.447 0.471-3.388 1.412l-3.859 3.859c-0.941 0.941-0.941 2.541 0 3.482l3.859 3.859c0.941 0.941 2.071 1.412 3.388 1.412h9.412c1.318 0 2.353-1.129 2.353-2.447v-9.224c0-1.224-1.035-2.353-2.353-2.353z"></path>
</symbol>
<symbol id="icon-close" viewBox="0 0 32 32">
  <path stroke-width="2" d="M13.6452644,13.9930992 L13.6452644,5.49309923 L13.6452644,13.9930992 L22.1452644,13.9930992 L13.6452644,13.9930992 L13.6452644,22.4930992 L13.6452644,13.9930992 L5.14526436,13.9930992 L13.6452644,13.9930992 Z" transform="rotate(45 12.231 17.407)"/>
</symbol>
<symbol id="icon-globe" viewBox="197.3 314.6 90.6 90.6">
  <path d="M287.9 359.9c0 25-20.2 45.3-45.3 45.3s-45.3-20.2-45.3-45.3 20.2-45.3 45.3-45.3 45.3 20.3 45.3 45.3zm-22.7 13.2c0-7.3-5.9-13.2-13.2-13.2h-7.5c-5.7 0-9.4-2.8-9.4-6.6 0-2.6 2.1-4.7 4.7-4.7 3.8 0 3.9 3.8 6.6 3.8 2.1 0 3.8-1.7 3.8-3.8 0-3.7-1.8-5.6-3.6-7.3 1-2 3.5-7.2 3.6-14.8 0-.9-.6-1.8-1.6-1.9-2-.3-4-.5-6-.5-15.9.5-26.4 8.1-26.4 20.7 0 11.3 9.4 20.7 20.7 20.7h.3c-.2.9-.3 1.9-.3 2.8 0 5.8 4 10.7 9.4 11.9v13.5c0 1 .8 1.9 1.9 1.9 5.7.2 17-9.3 17-22.5z"></path>
</symbol>
<symbol id="icon-dropdown-arrow" viewBox="0 0 10 5">
  <path d="M0,0l5,5l5-5H0z"></path>
</symbol>
</defs>
</svg>
