<svg style="position: absolute; width: 0; height: 0; overflow: hidden;" version="1.1" xmlns="http://www.w3.org/2000/svg" xmlns:xlink="http://www.w3.org/1999/xlink">
<defs>
<symbol id="icon-facebook" viewBox="0 0 32 32">
<title>facebook</title>
<path d="M21.586 7.004l-2.638-0.004c-2.964 0-4.88 1.835-4.88 4.676v2.156h-2.653c-0.229 0-0.415 0.174-0.415 0.388v3.124c0 0.214 0.186 0.387 0.415 0.387h2.653v7.882c0 0.214 0.186 0.387 0.415 0.387h3.461c0.229 0 0.415-0.174 0.415-0.387v-7.882h3.102c0.229 0 0.415-0.173 0.415-0.387l0.001-3.124c0-0.103-0.044-0.201-0.122-0.274s-0.183-0.114-0.294-0.114h-3.103v-1.828c0-0.878 0.224-1.324 1.449-1.324l1.777-0.001c0.229 0 0.415-0.174 0.415-0.387v-2.901c0-0.214-0.185-0.387-0.414-0.387z"></path>
</symbol>
<symbol id="icon-instagram" viewBox="0 0 32 32">
<title>instagram</title>
<path d="M20.308 8h-7.617c-2.587 0-4.691 2.105-4.691 4.691v7.617c0 2.587 2.104 4.691 4.691 4.691h7.617c2.587 0 4.692-2.105 4.692-4.691v-7.617c0-2.587-2.105-4.691-4.691-4.691zM23.492 20.309c0 1.755-1.428 3.183-3.183 3.183h-7.617c-1.755 0-3.183-1.428-3.183-3.183v-7.617c0-1.755 1.428-3.183 3.183-3.183h7.617c1.755 0 3.183 1.428 3.183 3.183v7.617h0z"></path>
<path d="M16.5 12c-2.481 0-4.5 2.019-4.5 4.5s2.019 4.5 4.5 4.5 4.5-2.019 4.5-4.5c0-2.481-2.019-4.5-4.5-4.5zM16.5 19.45c-1.627 0-2.951-1.323-2.951-2.95s1.324-2.951 2.951-2.951 2.951 1.324 2.951 2.951c0 1.627-1.324 2.95-2.951 2.95zM21.5 11c-0.394 0-0.781 0.16-1.060 0.439-0.28 0.278-0.44 0.665-0.44 1.061 0 0.394 0.161 0.781 0.44 1.061 0.278 0.278 0.665 0.439 1.060 0.439 0.395 0 0.781-0.161 1.061-0.439 0.28-0.28 0.439-0.667 0.439-1.061 0-0.395-0.16-0.783-0.439-1.061-0.278-0.28-0.665-0.439-1.061-0.439z"></path>
</symbol>
<symbol id="icon-linkedin" viewBox="0 0 32 32">
<title>linkedin</title>
<path d="M11.723 12.967h-3.446c-0.153 0-0.277 0.107-0.277 0.238v9.524c0 0.132 0.124 0.238 0.277 0.238h3.446c0.153 0 0.277-0.107 0.277-0.238v-9.524c0-0.132-0.124-0.238-0.277-0.238zM9.979 8c-1.091 0-1.979 0.887-1.979 1.977s0.888 1.978 1.979 1.978c1.090 0 1.977-0.887 1.977-1.978s-0.887-1.977-1.977-1.977zM19.101 12.972c-1.225 0-2.131 0.504-2.68 1.077v-0.609c0-0.13-0.11-0.235-0.245-0.235h-2.922c-0.135 0-0.245 0.105-0.245 0.235v9.376c0 0.13 0.11 0.235 0.245 0.235h3.044c0.135 0 0.245-0.105 0.245-0.235v-4.639c0-1.563 0.444-2.172 1.583-2.172 1.241 0 1.339 0.976 1.339 2.253v4.559c0 0.13 0.11 0.235 0.245 0.235h3.045c0.135 0 0.245-0.105 0.245-0.235v-5.143c0-2.325-0.463-4.701-3.899-4.701z"></path>
</symbol>
<symbol id="icon-oberlo-logo" viewBox="0 0 85 32">
<title>oberlo-logo</title>
<path fill="#27b7d7" style="fill: var(--color2, #27b7d7)" d="M21.95 24.5h-11.9c-1.408 0-2.55-1.142-2.55-2.55v-11.9c0-1.408 1.142-2.55 2.55-2.55h11.9c1.408 0 2.55 1.142 2.55 2.55v11.9c0 1.408-1.142 2.55-2.55 2.55z"></path>
<path fill="#2e4257" style="fill: var(--color3, #2e4257)" d="M72.75 19.8c-1.408 0-2.55-1.142-2.55-2.55s1.142-2.55 2.55-2.55c1.408 0 2.55 1.142 2.55 2.55s-1.142 2.55-2.55 2.55zM72.75 13c-2.347 0-4.25 1.903-4.25 4.25s1.903 4.25 4.25 4.25c2.347 0 4.25-1.903 4.25-4.25s-1.903-4.25-4.25-4.25zM44.75 19.829c-1.408 0-2.55-1.122-2.55-2.506s1.142-2.506 2.55-2.506c1.408 0 2.55 1.122 2.55 2.506s-1.142 2.506-2.55 2.506zM44.892 13.146c-1.030 0-1.971 0.386-2.692 1.023v-3.668h-1.7v10.861h1.7v-0.884c0.721 0.637 1.662 1.023 2.692 1.023 2.269 0 4.108-1.87 4.108-4.177s-1.839-4.177-4.108-4.177z"></path>
<path fill="#2e4257" style="fill: var(--color3, #2e4257)" d="M65.5 21.5h1.5v-11h-1.5z"></path>
<path fill="#2e4257" style="fill: var(--color3, #2e4257)" d="M61.742 13.144h-1.742v8.356h1.742v-4.178c0-1.432 1.17-2.593 2.613-2.593h0.145v-1.729c-1.055 0-2.019 0.4-2.758 1.058v-0.914zM51.8 16.542c0.307-1.064 1.287-1.842 2.45-1.842s2.142 0.778 2.45 1.842h-4.899zM54.25 13c-2.347 0-4.25 1.903-4.25 4.25s1.903 4.25 4.25 4.25c1.687 0 3.145-0.983 3.831-2.408h-2.069c-0.458 0.438-1.079 0.708-1.763 0.708-1.162 0-2.142-0.778-2.45-1.842h6.64c0.039-0.23 0.060-0.467 0.060-0.708 0-2.347-1.903-4.25-4.25-4.25v0zM33.75 20.131c-2.144 0-3.881-1.738-3.881-3.881s1.738-3.881 3.881-3.881c2.144 0 3.881 1.738 3.881 3.881s-1.738 3.881-3.881 3.881zM33.75 10.5c-3.176 0-5.75 2.574-5.75 5.75s2.574 5.75 5.75 5.75c3.176 0 5.75-2.574 5.75-5.75s-2.574-5.75-5.75-5.75z"></path>
<path fill="#fff" style="fill: var(--color4, #fff)" d="M14.638 17.548c-0.703 0-1.272-0.581-1.272-1.298s0.57-1.298 1.272-1.298c0.703 0 1.272 0.581 1.272 1.298s-0.57 1.298-1.272 1.298zM19.728 12.5h-5.025c-0.675 0-1.322 0.274-1.799 0.76l-2.031 2.072c-0.497 0.507-0.497 1.329 0 1.836l2.031 2.072c0.477 0.487 1.124 0.76 1.799 0.76h5.025c0.703 0 1.272-0.581 1.272-1.298v-4.904c0-0.717-0.57-1.298-1.272-1.298z"></path>
</symbol>
<symbol id="icon-pinterest" viewBox="0 0 32 32">
<title>pinterest</title>
<path d="M21.314 9.64c-1.139-1.057-2.714-1.64-4.437-1.64-2.631 0-4.249 1.043-5.143 1.918-1.102 1.079-1.734 2.511-1.734 3.929 0 1.781 0.77 3.148 2.060 3.657 0.087 0.034 0.174 0.052 0.259 0.052 0.272 0 0.488-0.172 0.562-0.448 0.044-0.159 0.144-0.549 0.188-0.719 0.094-0.335 0.018-0.496-0.187-0.73-0.373-0.427-0.547-0.932-0.547-1.589 0-1.952 1.502-4.026 4.287-4.026 2.209 0 3.582 1.215 3.582 3.17 0 1.234-0.275 2.376-0.774 3.218-0.347 0.584-0.956 1.281-1.893 1.281-0.405 0-0.768-0.161-0.998-0.441-0.217-0.265-0.288-0.608-0.201-0.964 0.098-0.403 0.233-0.824 0.363-1.231 0.237-0.743 0.461-1.444 0.461-2.004 0-0.957-0.608-1.6-1.514-1.6-1.151 0-2.052 1.13-2.052 2.574 0 0.708 0.194 1.237 0.282 1.44-0.145 0.594-1.006 4.126-1.17 4.792-0.095 0.389-0.664 3.46 0.278 3.704 1.058 0.275 2.005-2.716 2.101-3.054 0.078-0.275 0.351-1.314 0.518-1.953 0.511 0.476 1.334 0.798 2.134 0.798 1.509 0 2.866-0.657 3.822-1.85 0.926-1.157 1.437-2.769 1.437-4.54 0-1.384-0.615-2.749-1.686-3.744z"></path>
</symbol>
<symbol id="icon-shopify-logo" viewBox="0 0 79 32">
<title>shopify-logo</title>
<path fill="#95bf47" style="fill: var(--color5, #95bf47)" d="M20.798 10.316c-0.013-0.091-0.091-0.144-0.157-0.144s-1.464-0.105-1.464-0.105c0 0-0.967-0.967-1.085-1.072-0.105-0.105-0.314-0.078-0.392-0.052-0.013 0-0.209 0.065-0.549 0.17-0.327-0.954-0.902-1.817-1.908-1.817-0.026 0-0.052 0-0.091 0-0.274-0.366-0.64-0.536-0.941-0.536-2.353 0-3.477 2.941-3.83 4.431-0.915 0.288-1.568 0.484-1.647 0.51-0.51 0.157-0.523 0.17-0.588 0.654-0.052 0.366-1.385 10.692-1.385 10.692l10.391 1.948 5.633-1.216c0-0.013-1.974-13.371-1.987-13.463zM16.576 9.27c-0.261 0.078-0.562 0.17-0.876 0.274 0-0.065 0-0.118 0-0.196 0-0.575-0.078-1.046-0.209-1.425 0.523 0.078 0.863 0.667 1.085 1.346zM14.838 8.055c0.144 0.366 0.235 0.876 0.235 1.582 0 0.039 0 0.065 0 0.105-0.575 0.183-1.189 0.366-1.817 0.562 0.353-1.346 1.020-2 1.582-2.248zM14.145 7.388c0.105 0 0.209 0.039 0.301 0.105-0.758 0.353-1.555 1.242-1.895 3.032-0.497 0.157-0.98 0.301-1.438 0.444 0.392-1.359 1.346-3.581 3.032-3.581z"></path>
<path fill="#5e8e3e" style="fill: var(--color6, #5e8e3e)" d="M20.641 10.159c-0.065 0-1.464-0.105-1.464-0.105s-0.967-0.967-1.085-1.072c-0.039-0.039-0.091-0.065-0.144-0.065l-0.784 16.077 5.633-1.216c0 0-1.974-13.371-1.987-13.463-0.026-0.091-0.105-0.144-0.17-0.157z"></path>
<path fill="#fff" style="fill: var(--color4, #fff)" d="M15.243 13.27l-0.693 2.065c0 0-0.614-0.327-1.359-0.327-1.098 0-1.15 0.693-1.15 0.863 0 0.941 2.457 1.307 2.457 3.516 0 1.738-1.098 2.862-2.588 2.862-1.791 0-2.692-1.111-2.692-1.111l0.484-1.582c0 0 0.941 0.81 1.725 0.81 0.523 0 0.732-0.405 0.732-0.706 0-1.229-2.013-1.281-2.013-3.307 0-1.699 1.216-3.346 3.686-3.346 0.941-0.013 1.412 0.261 1.412 0.261zM29.359 17.152c-0.562-0.301-0.85-0.562-0.85-0.915 0-0.444 0.405-0.732 1.033-0.732 0.732 0 1.385 0.301 1.385 0.301l0.51-1.568c0 0-0.471-0.366-1.856-0.366-1.934 0-3.281 1.111-3.281 2.666 0 0.889 0.627 1.555 1.464 2.039 0.68 0.379 0.915 0.654 0.915 1.059 0 0.418-0.34 0.758-0.967 0.758-0.928 0-1.817-0.484-1.817-0.484l-0.549 1.568c0 0 0.81 0.549 2.183 0.549 1.987 0 3.424-0.98 3.424-2.745-0.013-0.967-0.732-1.634-1.595-2.13zM37.28 13.845c-0.98 0-1.751 0.471-2.34 1.176l-0.026-0.013 0.85-4.444h-2.209l-2.157 11.319h2.209l0.732-3.869c0.288-1.464 1.046-2.366 1.751-2.366 0.497 0 0.693 0.34 0.693 0.823 0 0.301-0.026 0.68-0.092 0.98l-0.837 4.431h2.209l0.863-4.575c0.092-0.484 0.157-1.059 0.157-1.451 0.013-1.268-0.64-2.013-1.804-2.013zM44.103 13.845c-2.666 0-4.431 2.405-4.431 5.084 0 1.712 1.059 3.098 3.045 3.098 2.614 0 4.379-2.34 4.379-5.084 0.013-1.595-0.915-3.098-2.993-3.098zM43.018 20.328c-0.758 0-1.072-0.64-1.072-1.451 0-1.268 0.654-3.333 1.856-3.333 0.784 0 1.046 0.68 1.046 1.333 0 1.359-0.667 3.451-1.83 3.451zM52.768 13.845c-1.49 0-2.34 1.32-2.34 1.32h-0.026l0.131-1.189h-1.961c-0.092 0.797-0.274 2.026-0.444 2.941l-1.542 8.104h2.209l0.614-3.281h0.052c0 0 0.457 0.288 1.294 0.288 2.601 0 4.3-2.666 4.3-5.359 0-1.49-0.667-2.823-2.287-2.823zM50.651 20.354c-0.575 0-0.915-0.327-0.915-0.327l0.366-2.065c0.261-1.385 0.98-2.3 1.751-2.3 0.68 0 0.889 0.627 0.889 1.216 0 1.438-0.85 3.477-2.091 3.477zM58.219 10.669c-0.706 0-1.268 0.562-1.268 1.281 0 0.654 0.418 1.111 1.046 1.111h0.026c0.693 0 1.281-0.471 1.294-1.281 0-0.654-0.431-1.111-1.098-1.111z"></path>
<path fill="#fff" style="fill: var(--color4, #fff)" d="M55.121 21.87h2.209l1.503-7.855h-2.222z"></path>
<path fill="#fff" style="fill: var(--color4, #fff)" d="M64.466 14.002h-1.542l0.078-0.366c0.131-0.758 0.575-1.425 1.32-1.425 0.392 0 0.706 0.118 0.706 0.118l0.431-1.738c0 0-0.379-0.196-1.202-0.196-0.784 0-1.568 0.222-2.17 0.732-0.758 0.64-1.111 1.568-1.281 2.51l-0.065 0.366h-1.033l-0.327 1.673h1.033l-1.176 6.195h2.209l1.176-6.195h1.529l0.314-1.673zM69.799 14.015c0 0-1.385 3.49-2 5.398h-0.026c-0.039-0.614-0.549-5.398-0.549-5.398h-2.327l1.333 7.202c0.026 0.157 0.013 0.261-0.052 0.366-0.261 0.497-0.693 0.98-1.202 1.333-0.418 0.301-0.889 0.497-1.255 0.627l0.614 1.882c0.444-0.091 1.385-0.471 2.17-1.202 1.006-0.941 1.948-2.405 2.902-4.392l2.706-5.816h-2.313z"></path>
</symbol>
<symbol id="icon-twitter" viewBox="0 0 32 32">
<title>twitter</title>
<path d="M24.078 10.545c-0.592 0.262-1.227 0.44-1.894 0.519 0.681-0.408 1.203-1.055 1.45-1.824-0.639 0.378-1.344 0.652-2.096 0.801-0.602-0.642-1.458-1.042-2.407-1.042-1.822 0-3.298 1.477-3.298 3.297 0 0.258 0.029 0.51 0.085 0.752-2.741-0.138-5.171-1.451-6.798-3.446-0.284 0.486-0.446 1.053-0.446 1.658 0 1.144 0.583 2.154 1.467 2.745-0.541-0.018-1.049-0.167-1.494-0.414v0.041c0 1.597 1.137 2.931 2.645 3.234-0.276 0.074-0.568 0.116-0.869 0.116-0.213 0-0.419-0.021-0.621-0.061 0.42 1.311 1.638 2.265 3.080 2.291-1.128 0.884-2.551 1.41-4.096 1.41-0.266 0-0.528-0.016-0.787-0.045 1.46 0.937 3.193 1.484 5.056 1.484 6.067 0 9.384-5.025 9.384-9.384l-0.011-0.427c0.648-0.462 1.209-1.043 1.65-1.704z"></path>
</symbol>
<symbol id="icon-youtube" viewBox="0 0 32 32">
<title>youtube</title>
<path d="M21.262 10h-10.523c-2.065 0-3.738 1.708-3.738 3.815v5.369c0 2.107 1.674 3.815 3.738 3.815h10.523c2.065 0 3.738-1.708 3.738-3.815v-5.369c0-2.107-1.674-3.815-3.738-3.815zM18.894 16.74l-4.628 2.241c-0.123 0.060-0.266-0.032-0.266-0.17v-4.622c0-0.141 0.146-0.232 0.27-0.168l4.628 2.381c0.138 0.071 0.135 0.271-0.004 0.339z"></path>
</symbol>
<symbol id="icon-arrow" viewBox="0 0 32 32">
  <title>arrow</title>
  <path fill="#1a81c5" opacity="0.9" style="fill: var(--color1, #1a81c5)" d="M19.571 15.891l-6.034 6.034c-0.312 0.312-0.312 0.819 0 1.131v0l0.189 0.189c0.312 0.312 0.819 0.312 1.131 0v0l6.788-6.788c0.156-0.156 0.234-0.361 0.234-0.566s-0.078-0.409-0.234-0.566l-6.788-6.788c-0.312-0.312-0.819-0.312-1.131 0l-0.189 0.189c-0.312 0.312-0.312 0.819 0 1.131l6.034 6.034z"></path>
</symbol>
<symbol id="icon-loop" viewBox="0 0 32 32">
  <title>loop</title>
  <path fill="#818d9a" style="fill: var(--color2, #818d9a)" d="M19.512 21.392c-3.138 2.442-7.678 2.221-10.563-0.663-3.124-3.124-3.124-8.19 0-11.314s8.19-3.124 11.314 0c2.885 2.885 3.106 7.424 0.663 10.563l4.087 4.087c0.391 0.391 0.391 1.024 0 1.414s-1.024 0.391-1.414 0l-4.087-4.087zM18.849 19.314c2.343-2.343 2.343-6.142 0-8.485s-6.142-2.343-8.485 0c-2.343 2.343-2.343 6.142 0 8.485s6.142 2.343 8.485 0z"></path>
</symbol>
</defs>
</svg>
